<svg version="1.1" xmlns="http://www.w3.org/2000/svg" xmlns:xlink="http://www.w3.org/1999/xlink" width="15" height="12"><defs/><g><path fill="rgb(96,85,143)" stroke="none" paint-order="stroke fill markers" fill-rule="evenodd" d=" M 4.794406890869141 8.173887729644775 C 4.794406890869141 8.173887729644775 8.747291564941406 10.061984062194824 8.747291564941406 10.061984062194824 C 8.747291564941406 10.061984062194824 8.747291564941406 1.062779426574707 8.747291564941406 1.062779426574707 C 8.747291564941406 1.062779426574707 4.794406890869141 3.3434438705444336 4.794406890869141 3.3434438705444336 C 4.794406890869141 3.3434438705444336 4.794406890869141 8.173887729644775 4.794406890869141 8.173887729644775 Z M 1.49993896484375 4.033522605895996 C 1.49993896484375 4.033522605895996 1.49993896484375 7.483916282653809 1.49993896484375 7.483916282653809 C 1.49993896484375 7.86489725112915 1.7943859100341797 8.173887729644775 2.1584510803222656 8.173887729644775 C 2.1584510803222656 8.173887729644775 4.135227203369141 8.173887729644775 4.135227203369141 8.173887729644775 C 4.135227203369141 8.173887729644775 4.135227203369141 3.3434438705444336 4.135227203369141 3.3434438705444336 C 4.135227203369141 3.3434438705444336 2.1584510803222656 3.3434438705444336 2.1584510803222656 3.3434438705444336 C 1.7943859100341797 3.3434438705444336 1.49993896484375 3.6524343490600586 1.49993896484375 4.033522605895996 Z M 10.76807975769043 2.960817813873291 C 10.76807975769043 2.960817813873291 9.995317459106445 3.733079433441162 9.995317459106445 3.733079433441162 C 10.368871688842773 4.148070812225342 10.573196411132812 4.6866583824157715 10.573196411132812 5.259971618652344 C 10.573196411132812 5.83160400390625 10.368871688842773 6.369655132293701 9.995317459106445 6.78450345993042 C 9.995317459106445 6.78450345993042 10.76807975769043 7.558410167694092 10.76807975769043 7.558410167694092 C 11.309289932250977 6.959061622619629 11.641788482666016 6.1498212814331055 11.641788482666016 5.259971618652344 C 11.641788482666016 4.369406700134277 11.309289932250977 3.560166358947754 10.76807975769043 2.960817813873291 Z M 12.110567092895508 1.6152429580688477 C 12.110567092895508 1.6152429580688477 11.338233947753906 2.3891854286193848 11.338233947753906 2.3891854286193848 C 11.670351028442383 2.754037380218506 11.932563781738281 3.173642158508301 12.11862564086914 3.635375499725342 C 12.327003479003906 4.149608612060547 12.43133544921875 4.696743488311768 12.43133544921875 5.259971618652344 C 12.43133544921875 5.8240580558776855 12.327003479003906 6.3687968254089355 12.11862564086914 6.88288688659668 C 11.932563781738281 7.346301078796387 11.670351028442383 7.763545513153076 11.338233947753906 8.130185604095459 C 11.338233947753906 8.130185604095459 12.110567092895508 8.902339935302734 12.110567092895508 8.902339935302734 C 12.971878051757812 7.9532670974731445 13.499927520751953 6.670098304748535 13.499927520751953 5.259971618652344 C 13.499927520751953 3.8475918769836426 12.971878051757812 2.565031051635742 12.110567092895508 1.6152429580688477 Z"/></g></svg>