<svg version="1.1" xmlns="http://www.w3.org/2000/svg" xmlns:xlink="http://www.w3.org/1999/xlink" width="19" height="16"><defs/><g><path fill="rgb(255,255,255)" stroke="none" paint-order="stroke fill markers" fill-rule="evenodd" d=" M 17.499950408935547 1.6932868957519531 C 17.499950408935547 1.6932868957519531 1.4999656677246094 1.6932868957519531 1.4999656677246094 1.6932868957519531 C 1.4999656677246094 1.6932868957519531 1.4999656677246094 4.291238784790039 1.4999656677246094 4.291238784790039 C 1.4999656677246094 4.291238784790039 17.499950408935547 4.291238784790039 17.499950408935547 4.291238784790039 C 17.499950408935547 4.291238784790039 17.499950408935547 1.6932868957519531 17.499950408935547 1.6932868957519531 Z M 17.499950408935547 6.889333724975586 C 17.499950408935547 6.889333724975586 1.4999656677246094 6.889333724975586 1.4999656677246094 6.889333724975586 C 1.4999656677246094 6.889333724975586 1.4999656677246094 9.486391544342041 1.4999656677246094 9.486391544342041 C 1.4999656677246094 9.486391544342041 17.499950408935547 9.486391544342041 17.499950408935547 9.486391544342041 C 17.499950408935547 9.486391544342041 17.499950408935547 6.889333724975586 17.499950408935547 6.889333724975586 Z M 1.4999656677246094 12.084343433380127 C 1.4999656677246094 12.084343433380127 1.4999656677246094 14.681401252746582 1.4999656677246094 14.681401252746582 C 1.4999656677246094 14.681401252746582 17.499950408935547 14.681401252746582 17.499950408935547 14.681401252746582 C 17.499950408935547 14.681401252746582 17.499950408935547 12.084343433380127 17.499950408935547 12.084343433380127 C 17.499950408935547 12.084343433380127 1.4999656677246094 12.084343433380127 1.4999656677246094 12.084343433380127 Z"/></g></svg>