<svg version="1.1" xmlns="http://www.w3.org/2000/svg" xmlns:xlink="http://www.w3.org/1999/xlink" width="19" height="18"><defs/><g><path fill="rgb(255,255,255)" stroke="none" paint-order="stroke fill markers" fill-rule="evenodd" d=" M 14.939397811889648 11.595037937164307 C 14.939397811889648 11.595037937164307 4.969209671020508 11.595037937164307 4.969209671020508 11.595037937164307 C 4.969209671020508 11.595037937164307 4.969209671020508 9.436110019683838 4.969209671020508 9.436110019683838 C 4.969209671020508 9.436110019683838 1.4999332427978516 12.85678482055664 1.4999332427978516 12.85678482055664 C 1.4999332427978516 12.85678482055664 4.969209671020508 16.27867555618286 4.969209671020508 16.27867555618286 C 4.969209671020508 16.27867555618286 4.969209671020508 14.119747638702393 4.969209671020508 14.119747638702393 C 4.969209671020508 14.119747638702393 17.49991798400879 14.119747638702393 17.49991798400879 14.119747638702393 C 17.49991798400879 14.119747638702393 17.49991798400879 13.525942325592041 17.49991798400879 13.525942325592041 C 17.49991798400879 13.525942325592041 17.49991798400879 11.595037937164307 17.49991798400879 11.595037937164307 C 17.49991798400879 11.595037937164307 17.49991798400879 7.288626194000244 17.49991798400879 7.288626194000244 C 17.49991798400879 7.288626194000244 14.939397811889648 9.81333589553833 14.939397811889648 9.81333589553833 C 14.939397811889648 9.81333589553833 14.939397811889648 11.595037937164307 14.939397811889648 11.595037937164307 Z M 4.059547424316406 5.967226982116699 C 4.059547424316406 5.967226982116699 14.03026008605957 5.967226982116699 14.03026008605957 5.967226982116699 C 14.03026008605957 5.967226982116699 14.03026008605957 8.125976085662842 14.03026008605957 8.125976085662842 C 14.03026008605957 8.125976085662842 17.49991798400879 4.704264163970947 17.49991798400879 4.704264163970947 C 17.49991798400879 4.704264163970947 14.03026008605957 1.2835893630981445 14.03026008605957 1.2835893630981445 C 14.03026008605957 1.2835893630981445 14.03026008605957 3.442481517791748 14.03026008605957 3.442481517791748 C 14.03026008605957 3.442481517791748 1.4999332427978516 3.442481517791748 1.4999332427978516 3.442481517791748 C 1.4999332427978516 3.442481517791748 1.4999332427978516 10.27260160446167 1.4999332427978516 10.27260160446167 C 1.4999332427978516 10.27260160446167 4.059547424316406 7.747713088989258 4.059547424316406 7.747713088989258 C 4.059547424316406 7.747713088989258 4.059547424316406 5.967226982116699 4.059547424316406 5.967226982116699 Z"/></g></svg>