<svg version="1.1" xmlns="http://www.w3.org/2000/svg" xmlns:xlink="http://www.w3.org/1999/xlink" width="19" height="19"><defs/><g><path fill="rgb(255,255,255)" stroke="none" paint-order="stroke fill markers" fill-rule="evenodd" d=" M 17.39739418029785 8.229724884033203 C 17.39739418029785 8.229724884033203 14.898386001586914 8.229724884033203 14.898386001586914 8.229724884033203 C 14.996042251586914 8.645252704620361 15.046825408935547 9.072975635528564 15.046825408935547 9.508530616760254 C 15.046825408935547 10.257582187652588 14.900341033935547 10.983137607574463 14.611282348632812 11.66402530670166 C 14.331998825073242 12.32395601272583 13.931598663330078 12.91679573059082 13.421859741210938 13.426701545715332 C 12.91111946105957 13.935391426086426 12.318267822265625 14.33572006225586 11.658134460449219 14.615063190460205 C 10.975542068481445 14.903275489807129 10.24993896484375 15.048651218414307 9.499969482421875 15.048651218414307 C 8.74995231628418 15.048651218414307 8.023395538330078 14.903275489807129 7.341756820678711 14.615063190460205 C 6.681575775146484 14.33572006225586 6.087865829467773 13.935391426086426 5.577077865600586 13.426701545715332 C 5.067338943481445 12.91679573059082 4.666986465454102 12.32395601272583 4.387655258178711 11.66402530670166 C 4.099550247192383 10.983137607574463 3.953113555908203 10.257582187652588 3.953113555908203 9.508530616760254 C 3.953113555908203 8.759192943572998 4.099550247192383 8.034066677093506 4.387655258178711 7.352427959442139 C 4.666986465454102 6.69264030456543 5.067338943481445 6.0998005867004395 5.577077865600586 5.590502738952637 C 6.087865829467773 5.080918788909912 6.681575775146484 4.680411338806152 7.341756820678711 4.401711940765381 C 8.023395538330078 4.113499641418457 8.74995231628418 3.9676589965820312 9.499969482421875 3.9676589965820312 C 10.24993896484375 3.9676589965820312 10.975542068481445 4.113499641418457 11.658134460449219 4.401711940765381 C 11.94819450378418 4.524199485778809 12.224569320678711 4.670791149139404 12.488212585449219 4.83876895904541 C 12.488212585449219 4.83876895904541 10.92280387878418 6.401710033416748 10.92280387878418 6.401710033416748 C 10.92280387878418 6.401710033416748 15.83003044128418 6.401710033416748 15.83003044128418 6.401710033416748 C 15.83003044128418 6.401710033416748 15.83003044128418 1.4998836517333984 15.83003044128418 1.4998836517333984 C 15.83003044128418 1.4998836517333984 14.249935150146484 3.077880859375 14.249935150146484 3.077880859375 C 12.92184829711914 2.096621513366699 11.27828598022461 1.516441822052002 9.499969482421875 1.516441822052002 C 5.080976486206055 1.516441822052002 1.499929428100586 5.094615936279297 1.499929428100586 9.508530616760254 C 1.499929428100586 13.921694278717041 5.080976486206055 17.499868392944336 9.499969482421875 17.499868392944336 C 13.917961120605469 17.499868392944336 17.499961853027344 13.921694278717041 17.499961853027344 9.508530616760254 C 17.499961853027344 9.072975635528564 17.464771270751953 8.646289825439453 17.39739418029785 8.229724884033203 Z"/></g></svg>