<svg version="1.1" xmlns="http://www.w3.org/2000/svg" xmlns:xlink="http://www.w3.org/1999/xlink" width="15" height="15"><defs/><g><path fill="rgb(96,85,143)" stroke="none" paint-order="stroke fill markers" fill-rule="evenodd" d=" M 11.19980239868164 8.898770332336426 C 10.547203063964844 8.898770332336426 9.95759391784668 9.171926498413086 9.539026260375977 9.609233856201172 C 9.539026260375977 9.609233856201172 6.069559097290039 7.874881744384766 6.069559097290039 7.874881744384766 C 6.089347839355469 7.754003524780273 6.099933624267578 7.628798007965088 6.099933624267578 7.4998016357421875 C 6.099933624267578 7.370984077453613 6.089347839355469 7.246386528015137 6.069177627563477 7.124828815460205 C 6.069177627563477 7.124828815460205 9.539026260375977 5.3905839920043945 9.539026260375977 5.3905839920043945 C 9.95759391784668 5.828427791595459 10.547203063964844 6.101583957672119 11.19980239868164 6.101583957672119 C 12.470144271850586 6.101583957672119 13.499969482421875 5.070363998413086 13.499969482421875 3.801178455352783 C 13.499969482421875 2.5310988426208496 12.470144271850586 1.4998431205749512 11.19980239868164 1.4998431205749512 C 9.929746627807617 1.4998431205749512 8.900350570678711 2.5310988426208496 8.900350570678711 3.801178455352783 C 8.900350570678711 3.929960250854492 8.91098403930664 4.050981521606445 8.930391311645508 4.176151275634766 C 8.930391311645508 4.176151275634766 5.4612579345703125 5.910503387451172 5.4612579345703125 5.910503387451172 C 5.042308807373047 5.472552299499512 4.453081130981445 5.199360370635986 3.8001480102539062 5.199360370635986 C 2.5297584533691406 5.199360370635986 1.4999332427978516 6.230616092681885 1.4999332427978516 7.4998016357421875 C 1.4999332427978516 8.769881248474121 2.5297584533691406 9.801101207733154 3.8001480102539062 9.801101207733154 C 4.453081130981445 9.801101207733154 5.042308807373047 9.527158260345459 5.4612579345703125 9.089993953704834 C 5.4612579345703125 9.089993953704834 8.930391311645508 10.82434606552124 8.930391311645508 10.82434606552124 C 8.91098403930664 10.949623107910156 8.900350570678711 11.074006080627441 8.900350570678711 11.199318885803223 C 8.900350570678711 12.468719005584717 9.929746627807617 13.499831676483154 11.19980239868164 13.499831676483154 C 12.470144271850586 13.499831676483154 13.499969482421875 12.468719005584717 13.499969482421875 11.199318885803223 C 13.499969482421875 9.930026054382324 12.470144271850586 8.898770332336426 11.19980239868164 8.898770332336426 Z"/></g></svg>