<svg version="1.1" xmlns="http://www.w3.org/2000/svg" xmlns:xlink="http://www.w3.org/1999/xlink" width="19" height="18"><defs/><g><path fill="rgb(255,255,255)" stroke="none" paint-order="stroke fill markers" fill-rule="evenodd" d=" M 14.018037796020508 11.661592483520508 C 14.018037796020508 11.661592483520508 11.70060920715332 11.661592483520508 11.70060920715332 11.661592483520508 C 11.70060920715332 11.661592483520508 6.977489471435547 3.548518180847168 6.977489471435547 3.548518180847168 C 6.977489471435547 3.548518180847168 6.971672058105469 3.5525593757629395 6.971672058105469 3.5525593757629395 C 6.971672058105469 3.5525593757629395 6.971672058105469 3.548518180847168 6.971672058105469 3.548518180847168 C 6.971672058105469 3.548518180847168 1.5018730163574219 3.548518180847168 1.5018730163574219 3.548518180847168 C 1.5018730163574219 3.548518180847168 1.5018730163574219 6.086960792541504 1.5018730163574219 6.086960792541504 C 1.5018730163574219 6.086960792541504 5.499961853027344 6.086960792541504 5.499961853027344 6.086960792541504 C 5.499961853027344 6.086960792541504 10.223081588745117 14.200035095214844 10.223081588745117 14.200035095214844 C 10.223081588745117 14.200035095214844 10.226037979125977 14.198211193084717 10.226037979125977 14.198211193084717 C 10.226037979125977 14.198211193084717 10.226037979125977 14.200035095214844 10.226037979125977 14.200035095214844 C 10.226037979125977 14.200035095214844 14.018037796020508 14.200035095214844 14.018037796020508 14.200035095214844 C 14.018037796020508 14.200035095214844 14.018037796020508 16.37158727645874 14.018037796020508 16.37158727645874 C 14.018037796020508 16.37158727645874 17.48678970336914 12.931314468383789 17.48678970336914 12.931314468383789 C 17.48678970336914 12.931314468383789 14.018037796020508 9.491220474243164 14.018037796020508 9.491220474243164 C 14.018037796020508 9.491220474243164 14.018037796020508 11.661592483520508 14.018037796020508 11.661592483520508 Z M 14.029243469238281 6.086960792541504 C 14.029243469238281 6.086960792541504 14.029243469238281 8.2585129737854 14.029243469238281 8.2585129737854 C 14.029243469238281 8.2585129737854 17.497995376586914 4.8182759284973145 17.497995376586914 4.8182759284973145 C 17.497995376586914 4.8182759284973145 14.029243469238281 1.3781819343566895 14.029243469238281 1.3781819343566895 C 14.029243469238281 1.3781819343566895 14.029243469238281 3.548518180847168 14.029243469238281 3.548518180847168 C 14.029243469238281 3.548518180847168 9.59174919128418 3.548518180847168 9.59174919128418 3.548518180847168 C 9.59174919128418 3.548518180847168 11.072233200073242 6.086960792541504 11.072233200073242 6.086960792541504 C 11.072233200073242 6.086960792541504 14.029243469238281 6.086960792541504 14.029243469238281 6.086960792541504 Z M 1.5018730163574219 11.661592483520508 C 1.5018730163574219 11.661592483520508 1.5018730163574219 14.200035095214844 1.5018730163574219 14.200035095214844 C 1.5018730163574219 14.200035095214844 7.605913162231445 14.200035095214844 7.605913162231445 14.200035095214844 C 7.605913162231445 14.200035095214844 6.125429153442383 11.661592483520508 6.125429153442383 11.661592483520508 C 6.125429153442383 11.661592483520508 1.5018730163574219 11.661592483520508 1.5018730163574219 11.661592483520508 Z"/></g></svg>